<svg version="1.1" id="Layer_1" xmlns="http://www.w3.org/2000/svg" xmlns:xlink="http://www.w3.org/1999/xlink" x="0px" y="0px"
	 width="100%" viewBox="0 0 384 185" enable-background="new 0 0 384 185" xml:space="preserve">
<path fill="#000000" opacity="1.000000" stroke="none" 
	d="
M253.000000,186.000000 
	C168.666687,186.000000 84.833374,186.000000 1.000045,186.000000 
	C1.000030,124.333366 1.000030,62.666737 1.000015,1.000078 
	C128.999939,1.000052 256.999878,1.000052 384.999878,1.000026 
	C384.999908,62.666584 384.999908,124.333168 384.999939,185.999878 
	C341.166656,186.000000 297.333344,186.000000 253.000000,186.000000 
M172.915848,120.988716 
	C182.273956,120.934776 191.632050,120.880844 201.917679,120.979637 
	C209.262146,120.932472 216.606628,120.885300 224.884521,120.983696 
	C234.254135,121.035324 243.623764,121.086952 253.421204,121.889565 
	C264.610168,121.874191 275.799164,121.858818 287.915863,121.988167 
	C293.175446,121.988167 298.434998,121.988167 303.960571,121.988167 
	C303.960571,125.640999 303.980499,128.617722 303.954681,131.594070 
	C303.931152,134.302124 305.098816,134.958084 307.600677,134.020569 
	C312.259064,132.274948 316.940308,130.577637 321.669556,129.036850 
	C328.123657,126.934105 334.643768,125.034874 341.112885,122.977051 
	C347.192230,121.043205 353.254395,119.052864 359.292389,116.994209 
	C360.262909,116.663307 361.067474,115.845612 361.948792,115.252953 
	C361.228119,114.492920 360.642792,113.345703 359.763824,113.038483 
	C355.478699,111.540665 351.094574,110.329231 346.783722,108.901024 
	C338.887634,106.285011 331.012482,103.605209 323.140686,100.916573 
	C319.672455,99.731987 316.262817,98.369514 312.771729,97.260345 
	C310.381012,96.500793 307.895630,96.039169 305.003693,95.335060 
	C305.003693,98.180634 304.851990,99.528305 305.030914,100.830536 
	C305.673920,105.509689 304.032501,107.248985 299.034790,107.102783 
	C286.060181,106.723228 273.069061,106.908585 260.036804,105.950500 
	C260.020111,77.296059 260.003448,48.641617 260.069519,19.317944 
	C260.033234,18.871824 259.996948,18.425707 259.636383,17.161289 
	C259.141296,17.108812 258.646179,17.010410 258.151093,17.010359 
	C180.575226,17.002302 102.999344,16.997038 25.423498,17.041395 
	C24.273788,17.042051 23.124434,17.663261 21.297846,18.505907 
	C21.196501,19.325655 21.006531,20.145414 21.006628,20.965151 
	C21.010050,49.946835 21.031296,78.928520 21.006250,108.851395 
	C21.004725,111.482300 21.141684,114.122482 20.966354,116.741753 
	C20.750849,119.961243 22.066254,121.169670 25.270874,121.041840 
	C30.523424,120.832306 35.786892,120.896416 41.970520,120.984863 
	C51.962955,120.937141 61.955387,120.889412 72.883537,120.972649 
	C87.259651,120.930130 101.635765,120.887611 116.940720,120.994324 
	C126.288689,120.940498 135.636658,120.886681 145.912598,120.990211 
	C154.604538,120.938248 163.296463,120.886292 172.915848,120.988716 
M138.206543,172.598587 
	C139.124466,173.035065 140.042374,173.471542 141.824387,173.995682 
	C143.560379,173.970688 145.296371,173.945709 147.575684,173.772736 
	C148.019608,173.195343 148.463531,172.617950 148.985657,171.124344 
	C148.985657,167.894043 148.985657,164.663757 148.985657,161.080521 
	C153.679520,162.424377 157.018372,162.143082 159.899399,158.712830 
	C164.594589,153.122574 164.505997,141.416595 161.070999,136.355515 
	C159.153381,133.530136 153.409698,130.122009 151.545258,131.097122 
	C147.575027,133.173584 143.959717,132.735474 139.893799,132.484802 
	C139.574997,132.610703 139.256195,132.736603 138.329453,133.471268 
	C138.246628,146.299179 138.163818,159.127106 138.206543,172.598587 
M244.854462,160.943390 
	C253.031281,161.046402 253.031281,161.046402 253.033920,152.999542 
	C253.036224,145.958984 253.040222,145.964325 257.955383,142.282455 
	C258.185181,142.110321 258.285797,141.705231 258.355194,141.388611 
	C259.228455,137.404175 260.106659,133.412704 257.854309,130.870148 
	C253.206573,131.704987 249.644745,132.308289 246.101013,133.003784 
	C245.052826,133.209518 244.055664,133.675293 243.004318,134.954468 
	C243.001282,140.078888 242.879059,145.206985 243.036346,150.326477 
	C243.144562,153.848587 243.640427,157.358795 244.854462,160.943390 
M286.875183,162.975922 
	C287.248383,161.985214 287.939026,160.996307 287.944733,160.003494 
	C287.992249,151.703461 287.913818,143.402710 287.613861,134.359238 
	C285.943542,133.910202 284.293884,133.344147 282.597168,133.044403 
	C280.827942,132.731842 278.857880,133.071945 277.245697,132.438889 
	C270.504486,129.791840 263.633942,133.549713 263.058868,140.675110 
	C262.742645,144.593140 263.105713,148.566132 263.164642,152.514313 
	C263.233398,157.117798 266.918427,161.204742 271.454315,161.770142 
	C272.863373,161.945786 274.256439,162.249619 275.656830,162.494766 
	C271.168121,164.854111 264.930634,162.352753 263.250977,169.217316 
	C266.201843,173.862900 271.289795,175.482132 277.965057,173.900085 
	C282.143311,172.909805 285.582214,168.378845 286.875183,162.975922 
M94.529930,161.640198 
	C102.809731,162.689285 102.997894,162.526367 102.999588,154.298813 
	C103.000237,151.133484 102.782532,147.946594 103.093529,144.812119 
	C103.243843,143.297104 104.386734,141.880585 105.080223,140.419464 
	C105.711136,141.943619 106.778030,143.437439 106.886543,144.997925 
	C107.151718,148.811234 107.083221,152.659424 106.941383,156.485886 
	C106.814255,159.915344 107.260582,162.189026 111.687202,162.167099 
	C115.893112,162.146255 117.385612,160.662918 117.067932,156.570328 
	C116.810844,153.258331 116.869087,149.901489 117.073563,146.582169 
	C117.184776,144.776917 117.892433,143.008408 118.331070,141.223343 
	C118.907387,141.167969 119.483711,141.112595 120.060028,141.057220 
	C120.704964,142.875366 121.748375,144.659134 121.908806,146.519073 
	C122.208359,149.991791 122.150009,153.517502 121.952103,157.004807 
	C121.749008,160.583328 122.957207,162.234756 126.774727,162.065292 
	C130.431183,161.902954 132.443939,160.708084 132.013779,156.693283 
	C131.364349,150.632278 130.355988,144.551147 130.438309,138.491318 
	C130.491440,134.580887 128.329422,133.212921 125.673927,132.523193 
	C123.178772,131.875107 120.423241,129.694992 117.600525,132.697784 
	C116.917679,133.424194 114.405830,132.512573 112.756416,132.229584 
	C110.418327,131.828430 106.974907,130.117142 105.975266,131.058731 
	C102.356331,134.467484 98.453766,132.381577 94.733971,132.867752 
	C94.084114,132.952682 93.596291,134.277374 92.998734,135.961868 
	C92.998650,140.790985 92.873909,145.624374 93.039940,150.447769 
	C93.161613,153.982956 93.664917,157.504990 94.529930,161.640198 
M187.292114,148.980408 
	C190.690323,149.334091 192.056946,147.909409 192.047531,144.402328 
	C192.032959,138.976852 190.529297,134.584274 185.913376,131.257568 
	C181.903946,128.367981 170.549393,130.272430 169.389633,137.097488 
	C168.780106,140.684372 166.983246,143.991989 167.500259,148.059296 
	C167.989090,151.904861 168.404984,155.598785 170.902893,158.447601 
	C176.146393,164.427643 182.050217,164.440292 188.775284,158.713196 
	C189.923462,157.735382 190.493225,156.078354 191.330200,154.735107 
	C188.715897,153.499176 185.990463,151.084305 183.514633,151.317673 
	C180.219238,151.628250 180.302719,152.513977 179.406235,148.980820 
	C181.737976,148.980820 184.069702,148.980820 187.292114,148.980408 
M212.818497,140.389587 
	C212.845413,143.372345 212.914444,146.355423 212.890350,149.337769 
	C212.842407,155.271866 215.662369,160.601257 220.951462,162.121307 
	C223.511703,162.857117 227.507797,162.359650 229.480927,160.743973 
	C239.666748,152.403366 238.150238,146.175690 233.925079,136.082001 
	C232.122360,131.775406 222.033813,129.270416 218.443436,132.211670 
	C216.156326,134.085312 214.856003,137.163559 212.818497,140.389587 
M86.987534,148.473297 
	C87.350563,146.854385 87.713593,145.235474 88.152016,143.280365 
	C83.241653,143.280365 79.156075,143.280365 74.855011,143.280365 
	C74.855011,145.568115 74.855011,147.579041 74.855011,150.389297 
	C78.977142,149.916672 82.674438,149.492752 86.987534,148.473297 
M207.572632,155.077209 
	C206.024780,153.868713 204.591125,151.930237 202.895721,151.664993 
	C201.322098,151.418823 198.682114,152.492310 197.901535,153.808792 
	C196.234436,156.620514 195.949478,159.882767 200.275085,161.017822 
	C204.753555,162.192947 206.911331,159.748337 207.572632,155.077209 
z"/>
<path fill="#1C2545" opacity="1.000000" stroke="none" 
	d="
M259.960693,17.979588 
	C259.996948,18.425707 260.033234,18.871824 259.715332,19.935019 
	C259.228485,21.857407 258.980682,23.162663 258.980011,24.468044 
	C258.966064,51.990334 258.980011,79.512642 258.663025,107.284477 
	C256.679077,107.607536 255.020599,107.745308 253.362122,107.745361 
	C178.085907,107.747658 102.809700,107.736389 27.533489,107.737160 
	C25.372339,107.737183 23.211187,107.849983 21.050037,107.910202 
	C21.031296,78.928520 21.010050,49.946835 21.006628,20.965151 
	C21.006531,20.145414 21.196501,19.325655 22.105101,18.293850 
	C68.661369,18.083714 114.410385,18.099590 160.159393,18.082895 
	C193.426498,18.070757 226.693588,18.015575 259.960693,17.979588 
M42.993279,62.995102 
	C42.993279,62.995102 42.983456,62.930286 42.843575,63.868206 
	C42.852863,73.161072 42.832375,82.454109 42.887447,91.746704 
	C42.906982,95.042885 42.990955,95.042389 46.805069,93.962143 
	C50.188164,93.977936 53.571255,93.993736 57.256042,94.780670 
	C60.923054,95.734901 59.918903,92.880577 59.939522,91.250381 
	C60.054214,82.182121 60.030876,73.112114 60.882339,63.956818 
	C62.833790,63.343010 66.310944,62.992622 66.470345,62.069412 
	C67.130722,58.244545 67.195587,54.172039 66.500175,50.369499 
	C66.344894,49.520458 62.227024,49.396111 59.914906,48.234989 
	C58.386887,45.430103 60.320179,44.107002 62.261478,42.821384 
	C66.341019,40.119728 68.307686,34.824810 66.620384,30.632336 
	C66.377960,30.029970 65.418579,29.329153 64.788895,29.327135 
	C53.625656,29.291340 44.944427,31.934889 44.013454,46.250336 
	C43.891983,48.118198 43.377331,51.113243 42.238636,51.568111 
	C36.467400,53.873524 39.127377,57.610260 39.718449,61.611393 
	C39.708988,62.076950 39.699528,62.542503 39.690067,63.008060 
	C40.800964,62.984226 41.911858,62.960392 42.993279,62.995102 
M110.463531,63.875832 
	C110.640579,63.593052 110.817627,63.310272 111.662468,63.261253 
	C112.781113,64.454430 113.899757,65.647598 114.987274,67.806244 
	C114.985825,72.291237 114.862778,76.780449 115.018158,81.260002 
	C115.164734,85.485214 115.604385,89.700272 116.114388,94.732155 
	C121.001358,95.323364 125.888329,95.914574 131.983215,96.651909 
	C131.983215,89.711906 132.078110,83.967369 131.956970,78.227402 
	C131.831818,72.298027 131.673370,66.359276 131.211426,60.449490 
	C130.544571,51.918320 123.437805,47.499886 115.823570,50.783825 
	C113.507828,51.782581 111.373177,53.201221 109.155586,54.427551 
	C109.288727,54.023056 109.421875,53.618565 109.555016,53.214069 
	C107.999229,52.484005 106.482338,51.246998 104.879967,51.124031 
	C100.922073,50.820305 96.924995,51.027214 92.141083,51.379597 
	C92.080429,65.243736 92.006874,79.107864 92.000435,92.972031 
	C92.000137,93.608932 92.602859,94.246124 93.454773,95.546349 
	C98.007362,95.399132 102.559959,95.251923 107.593430,95.596123 
	C108.074020,94.266212 108.915131,92.952858 108.977081,91.603722 
	C109.400032,82.393494 109.659248,73.175751 110.002495,63.997047 
	C110.002495,63.997047 109.956917,63.982044 110.463531,63.875832 
M176.423004,94.473442 
	C176.962479,93.405914 177.959290,92.342865 177.969788,91.270172 
	C178.061615,81.875786 177.977356,72.479675 178.664459,63.009491 
	C179.810684,62.704041 180.956894,62.398590 182.555527,62.656586 
	C183.345047,62.144459 184.790604,61.665829 184.818756,61.114830 
	C185.017120,57.229359 184.924103,53.329006 184.924103,49.543358 
	C181.870834,48.720718 178.001633,49.820656 179.022125,44.412430 
	C180.607040,43.012989 182.930206,41.901997 183.614502,40.150661 
	C184.827087,37.047279 185.044067,33.554886 185.707260,30.069679 
	C181.192459,30.069679 176.882904,29.549593 172.772614,30.231234 
	C169.372726,30.795063 166.054230,32.088444 164.658081,36.410767 
	C163.396469,40.316570 161.116440,43.813904 162.896210,48.142025 
	C163.040344,48.492493 162.130188,49.276485 161.187973,49.369244 
	C159.466690,49.447086 157.745392,49.524925 156.156387,49.596786 
	C156.156387,54.411228 156.156387,58.614124 156.156387,62.967785 
	C157.975189,62.967785 159.447571,62.967785 161.596954,63.039238 
	C162.042679,63.698448 162.488388,64.357658 162.363419,65.615410 
	C162.242065,70.699944 161.966339,75.786972 162.048523,80.868217 
	C162.113602,84.891464 162.617798,88.907623 163.477173,93.568291 
	C167.623611,93.696487 171.770050,93.824677 176.423004,94.473442 
M214.607529,53.993378 
	C212.170471,58.391968 208.779984,62.547440 207.578064,67.260979 
	C206.486649,71.541138 207.276596,76.529297 208.179688,81.015602 
	C208.868973,84.439781 210.252472,88.519775 212.752823,90.565544 
	C215.381470,92.716278 217.250992,97.121674 222.364471,95.841743 
	C225.912323,94.953705 229.785370,95.189835 233.509109,95.237617 
	C236.246765,95.272751 243.585846,90.245598 243.741745,87.653946 
	C243.783310,86.962784 242.939316,85.968857 242.240692,85.526123 
	C239.313538,83.671196 236.287140,81.972878 233.297104,80.217178 
	C233.368820,80.670891 233.440552,81.124603 233.512268,81.578316 
	C230.779587,81.957008 227.966629,82.869400 225.350143,82.475731 
	C224.149918,82.295151 223.335693,79.549011 221.685959,76.909698 
	C229.218079,76.909698 234.873306,77.067406 240.508606,76.801987 
	C241.969879,76.733154 244.483963,75.496140 244.618973,74.530663 
	C245.648285,67.169434 243.528778,60.567314 239.103348,54.560947 
	C236.730087,51.339848 233.213135,51.562424 230.023895,50.454540 
	C224.282486,48.460087 219.775528,50.893810 214.607529,53.993378 
z"/>
<path fill="#ED3D45" opacity="1.000000" stroke="none" 
	d="
M21.028145,108.380798 
	C23.211187,107.849983 25.372339,107.737183 27.533489,107.737160 
	C102.809700,107.736389 178.085907,107.747658 253.362122,107.745361 
	C255.020599,107.745308 256.679077,107.607536 258.942810,107.280243 
	C259.726898,106.973808 259.905731,106.921150 260.084534,106.868484 
	C273.069061,106.908585 286.060181,106.723228 299.034790,107.102783 
	C304.032501,107.248985 305.673920,105.509689 305.030914,100.830536 
	C304.851990,99.528305 305.003693,98.180634 305.003693,95.335060 
	C307.895630,96.039169 310.381012,96.500793 312.771729,97.260345 
	C316.262817,98.369514 319.672455,99.731987 323.140686,100.916573 
	C331.012482,103.605209 338.887634,106.285011 346.783722,108.901024 
	C351.094574,110.329231 355.478699,111.540665 359.763824,113.038483 
	C360.642792,113.345703 361.228119,114.492920 361.948792,115.252945 
	C361.067474,115.845612 360.262909,116.663307 359.292389,116.994209 
	C353.254395,119.052864 347.192230,121.043205 341.112885,122.977051 
	C334.643768,125.034874 328.123657,126.934105 321.669556,129.036850 
	C316.940308,130.577637 312.259064,132.274948 307.600677,134.020569 
	C305.098816,134.958084 303.931152,134.302124 303.954681,131.594070 
	C303.980499,128.617722 303.960571,125.640999 303.960571,121.988167 
	C298.434998,121.988167 293.175446,121.988167 287.202881,121.568787 
	C275.324402,121.145798 264.158905,121.142189 252.993378,121.138580 
	C243.623764,121.086952 234.254135,121.035324 224.102966,120.648468 
	C215.872101,120.217308 208.422775,120.121376 200.506470,120.023773 
	C190.680176,120.036346 181.320862,120.050583 171.496826,120.050140 
	C162.339432,120.062073 153.646790,120.088684 144.489136,120.089188 
	C139.226212,120.041977 134.425095,119.903267 129.631317,120.033760 
	C125.087502,120.157455 120.551384,120.563316 116.011879,120.845093 
	C101.635765,120.887611 87.259651,120.930130 72.135872,120.598587 
	C65.624603,120.148476 59.858898,119.944092 54.098080,120.038300 
	C49.744072,120.109497 45.396301,120.562202 41.045757,120.845123 
	C35.786892,120.896416 30.523424,120.832306 25.270874,121.041840 
	C22.066254,121.169670 20.750849,119.961243 20.966354,116.741753 
	C21.141684,114.122482 21.004725,111.482300 21.028145,108.380798 
z"/>
<path fill="#1D2646" opacity="1.000000" stroke="none" 
	d="
M93.033630,135.029465 
	C93.596291,134.277374 94.084114,132.952682 94.733971,132.867752 
	C98.453766,132.381577 102.356331,134.467484 105.975266,131.058731 
	C106.974907,130.117142 110.418327,131.828430 112.756416,132.229584 
	C114.405830,132.512573 116.917679,133.424194 117.600525,132.697784 
	C120.423241,129.694992 123.178772,131.875107 125.673927,132.523193 
	C128.329422,133.212921 130.491440,134.580887 130.438309,138.491318 
	C130.355988,144.551147 131.364349,150.632278 132.013779,156.693283 
	C132.443939,160.708084 130.431183,161.902954 126.774727,162.065292 
	C122.957207,162.234756 121.749008,160.583328 121.952103,157.004807 
	C122.150009,153.517502 122.208359,149.991791 121.908806,146.519073 
	C121.748375,144.659134 120.704964,142.875366 120.060028,141.057220 
	C119.483711,141.112595 118.907387,141.167969 118.331070,141.223343 
	C117.892433,143.008408 117.184776,144.776917 117.073563,146.582169 
	C116.869087,149.901489 116.810844,153.258331 117.067932,156.570328 
	C117.385612,160.662918 115.893112,162.146255 111.687202,162.167099 
	C107.260582,162.189026 106.814255,159.915344 106.941383,156.485886 
	C107.083221,152.659424 107.151718,148.811234 106.886543,144.997925 
	C106.778030,143.437439 105.711136,141.943619 105.080223,140.419464 
	C104.386734,141.880585 103.243843,143.297104 103.093529,144.812119 
	C102.782532,147.946594 103.000237,151.133484 102.999588,154.298813 
	C102.997894,162.526367 102.809731,162.689285 94.263985,160.865082 
	C93.995743,155.939667 94.117081,151.784576 93.956657,147.640396 
	C93.793701,143.431137 93.352806,139.232666 93.033630,135.029465 
z"/>
<path fill="#1F2948" opacity="1.000000" stroke="none" 
	d="
M286.062378,163.231339 
	C285.582214,168.378845 282.143311,172.909805 277.965057,173.900085 
	C271.289795,175.482132 266.201843,173.862900 263.249268,169.213852 
	C264.930634,162.352753 271.168121,164.854111 275.656830,162.494766 
	C274.256439,162.249619 272.863373,161.945786 271.454315,161.770142 
	C266.918427,161.204742 263.233398,157.117798 263.164642,152.514313 
	C263.105713,148.566132 262.742645,144.593140 263.058868,140.675110 
	C263.633942,133.549713 270.504486,129.791840 277.245697,132.438889 
	C278.857880,133.071945 280.827942,132.731842 282.597168,133.044403 
	C284.293884,133.344147 285.943542,133.910202 287.466553,135.023102 
	C286.900330,144.868439 286.481354,154.049881 286.062378,163.231339 
M272.085815,146.339218 
	C272.554901,148.338760 273.023987,150.338318 273.471710,152.246765 
	C274.824829,151.800461 276.004913,151.411224 277.355499,150.965759 
	C276.740936,147.304947 276.123779,143.628448 275.506592,139.951950 
	C274.916046,139.919296 274.325500,139.886627 273.734955,139.853973 
	C273.172577,141.750809 272.610199,143.647659 272.085815,146.339218 
z"/>
<path fill="#1E2847" opacity="1.000000" stroke="none" 
	d="
M140.106857,132.872070 
	C143.959717,132.735474 147.575027,133.173584 151.545258,131.097122 
	C153.409698,130.122009 159.153381,133.530136 161.070999,136.355515 
	C164.505997,141.416595 164.594589,153.122574 159.899399,158.712830 
	C157.018372,162.143082 153.679520,162.424377 148.985657,161.080521 
	C148.985657,164.663757 148.985657,167.894043 148.639465,171.606720 
	C147.872955,172.699631 147.452667,173.310181 147.032379,173.920715 
	C145.296371,173.945709 143.560379,173.970688 141.353638,173.544128 
	C140.590103,171.477661 140.049606,169.863541 140.044189,168.247650 
	C140.004715,156.455994 140.072769,144.663971 140.106857,132.872070 
M148.031494,148.091873 
	C149.315155,149.409653 150.598816,150.727448 151.882477,152.045227 
	C152.547012,150.269867 153.774521,148.481689 153.734436,146.722382 
	C153.683624,144.491867 152.603073,142.284790 151.966583,140.067612 
	C151.389984,140.079391 150.813385,140.091187 150.236786,140.102966 
	C149.494934,142.507202 148.753067,144.911423 148.031494,148.091873 
z"/>
<path fill="#202A49" opacity="1.000000" stroke="none" 
	d="
M186.846771,148.980621 
	C184.069702,148.980820 181.737976,148.980820 179.406250,148.985901 
	C180.302719,152.513977 180.219238,151.628250 183.514633,151.317673 
	C185.990463,151.084305 188.715897,153.499176 191.330200,154.735107 
	C190.493225,156.078354 189.923462,157.735382 188.775284,158.713196 
	C182.050217,164.440292 176.146393,164.427643 170.902893,158.447601 
	C168.404984,155.598785 167.989090,151.904861 167.500259,148.059296 
	C166.983246,143.991989 168.780106,140.684372 169.389633,137.097488 
	C170.549393,130.272430 181.903946,128.367981 185.913376,131.257568 
	C190.529297,134.584274 192.032959,138.976852 192.047531,144.402328 
	C192.056946,147.909409 190.690323,149.334091 186.846771,148.980621 
M182.049454,139.642090 
	C181.893509,139.902191 181.737564,140.162277 181.581604,140.422363 
	C181.852356,140.518784 182.123093,140.615189 182.393860,140.711609 
	C182.433197,140.321671 182.472534,139.931747 182.049454,139.642090 
z"/>
<path fill="#212A49" opacity="1.000000" stroke="none" 
	d="
M212.965851,140.045624 
	C214.856003,137.163559 216.156326,134.085312 218.443436,132.211670 
	C222.033813,129.270416 232.122360,131.775406 233.925079,136.082001 
	C238.150238,146.175690 239.666748,152.403366 229.480927,160.743973 
	C227.507797,162.359650 223.511703,162.857117 220.951462,162.121307 
	C215.662369,160.601257 212.842407,155.271866 212.890350,149.337769 
	C212.914444,146.355423 212.845413,143.372345 212.965851,140.045624 
M226.492752,151.713242 
	C226.454453,148.652710 226.579498,145.575531 226.270447,142.542587 
	C226.186401,141.717789 224.865753,140.902954 223.947342,140.366669 
	C223.736588,140.243607 222.330673,141.307556 222.348267,141.793655 
	C222.457367,144.811005 222.661072,147.848236 223.214188,150.807678 
	C223.332611,151.441208 225.017136,151.782043 226.492752,151.713242 
z"/>
<path fill="#1E2847" opacity="1.000000" stroke="none" 
	d="
M243.035126,134.021896 
	C244.055664,133.675293 245.052826,133.209518 246.101013,133.003784 
	C249.644745,132.308289 253.206573,131.704987 257.854309,130.870148 
	C260.106659,133.412704 259.228455,137.404175 258.355194,141.388611 
	C258.285797,141.705231 258.185181,142.110321 257.955383,142.282455 
	C253.040222,145.964325 253.036224,145.958984 253.033920,152.999542 
	C253.031281,161.046402 253.031281,161.046402 244.420197,160.452652 
	C243.989395,155.176010 244.116516,150.386002 243.957458,145.605515 
	C243.828781,141.738358 243.355530,137.882675 243.035126,134.021896 
z"/>
<path fill="#FFFFFF" opacity="1.000000" stroke="none" 
	d="
M259.798523,17.570438 
	C226.693588,18.015575 193.426498,18.070757 160.159393,18.082895 
	C114.410385,18.099590 68.661369,18.083714 22.443634,18.038326 
	C23.124434,17.663261 24.273788,17.042051 25.423498,17.041395 
	C102.999344,16.997038 180.575226,17.002302 258.151093,17.010359 
	C258.646179,17.010410 259.141296,17.108812 259.798523,17.570438 
z"/>
<path fill="#1F2948" opacity="1.000000" stroke="none" 
	d="
M86.679634,148.771072 
	C82.674438,149.492752 78.977142,149.916672 74.855011,150.389297 
	C74.855011,147.579041 74.855011,145.568115 74.855011,143.280365 
	C79.156075,143.280365 83.241653,143.280365 88.152016,143.280365 
	C87.713593,145.235474 87.350563,146.854385 86.679634,148.771072 
z"/>
<path fill="#404763" opacity="1.000000" stroke="none" 
	d="
M260.060669,106.409500 
	C259.905731,106.921150 259.726898,106.973808 259.268280,107.030701 
	C258.980011,79.512642 258.966064,51.990334 258.980011,24.468044 
	C258.980682,23.162663 259.228485,21.857407 259.673950,20.269634 
	C260.003448,48.641617 260.020111,77.296059 260.060669,106.409500 
z"/>
<path fill="#2C3350" opacity="1.000000" stroke="none" 
	d="
M207.735321,155.409180 
	C206.911331,159.748337 204.753555,162.192947 200.275085,161.017822 
	C195.949478,159.882767 196.234436,156.620514 197.901535,153.808792 
	C198.682114,152.492310 201.322098,151.418823 202.895721,151.664993 
	C204.591125,151.930237 206.024780,153.868713 207.735321,155.409180 
z"/>
<path fill="#3A3B59" opacity="1.000000" stroke="none" 
	d="
M140.000336,132.678436 
	C140.072769,144.663971 140.004715,156.455994 140.044189,168.247650 
	C140.049606,169.863541 140.590103,171.477661 140.921570,173.500305 
	C140.042374,173.471542 139.124466,173.035065 138.425476,171.978790 
	C138.742065,158.526825 138.839737,145.694672 138.937393,132.862503 
	C139.256195,132.736603 139.574997,132.610703 140.000336,132.678436 
z"/>
<path fill="#333366" opacity="1.000000" stroke="none" 
	d="
M138.633423,133.166885 
	C138.839737,145.694672 138.742065,158.526825 138.362701,171.657013 
	C138.163818,159.127106 138.246628,146.299179 138.633423,133.166885 
z"/>
<path fill="#FFFFFB" opacity="1.000000" stroke="none" 
	d="
M253.207291,121.514069 
	C264.158905,121.142189 275.324402,121.145798 286.739014,121.496429 
	C275.799164,121.858818 264.610168,121.874191 253.207291,121.514069 
z"/>
<path fill="#414147" opacity="1.000000" stroke="none" 
	d="
M286.468781,163.103638 
	C286.481354,154.049881 286.900330,144.868439 287.596313,135.394577 
	C287.913818,143.402710 287.992249,151.703461 287.944733,160.003494 
	C287.939026,160.996307 287.248383,161.985214 286.468781,163.103638 
z"/>
<path fill="#FABFBC" opacity="1.000000" stroke="none" 
	d="
M41.508141,120.914993 
	C45.396301,120.562202 49.744072,120.109497 54.098080,120.038300 
	C59.858898,119.944092 65.624603,120.148476 71.668015,120.533112 
	C61.955387,120.889412 51.962955,120.937141 41.508141,120.914993 
z"/>
<path fill="#F99285" opacity="1.000000" stroke="none" 
	d="
M116.476303,120.919708 
	C120.551384,120.563316 125.087502,120.157455 129.631317,120.033760 
	C134.425095,119.903267 139.226212,120.041977 144.500977,120.267982 
	C144.977814,120.472893 144.984619,120.832855 144.984619,120.832855 
	C135.636658,120.886681 126.288689,120.940498 116.476303,120.919708 
z"/>
<path fill="#F3645F" opacity="1.000000" stroke="none" 
	d="
M171.961563,120.064827 
	C181.320862,120.050583 190.680176,120.036346 200.513153,120.223938 
	C200.986832,120.425781 200.990158,120.826904 200.990158,120.826904 
	C191.632050,120.880844 182.273956,120.934776 172.449066,120.719025 
	C171.982285,120.449326 171.961563,120.064827 171.961563,120.064827 
z"/>
<path fill="#2B3553" opacity="1.000000" stroke="none" 
	d="
M243.019714,134.488190 
	C243.355530,137.882675 243.828781,141.738358 243.957458,145.605515 
	C244.116516,150.386002 243.989395,155.176010 243.974487,160.418121 
	C243.640427,157.358795 243.144562,153.848587 243.036346,150.326477 
	C242.879059,145.206985 243.001282,140.078888 243.019714,134.488190 
z"/>
<path fill="#F67B71" opacity="1.000000" stroke="none" 
	d="
M171.496826,120.050140 
	C171.961563,120.064827 171.982285,120.449326 171.985352,120.641830 
	C163.296463,120.886292 154.604538,120.938248 145.448608,120.911530 
	C144.984619,120.832855 144.977814,120.472893 144.965973,120.294098 
	C153.646790,120.088684 162.339432,120.062073 171.496826,120.050140 
z"/>
<path fill="#565D74" opacity="1.000000" stroke="none" 
	d="
M93.016182,135.495667 
	C93.352806,139.232666 93.793701,143.431137 93.956657,147.640396 
	C94.117081,151.784576 93.995743,155.939667 93.998093,160.561432 
	C93.664917,157.504990 93.161613,153.982956 93.039940,150.447769 
	C92.873909,145.624374 92.998650,140.790985 93.016182,135.495667 
z"/>
<path fill="#F04E4F" opacity="1.000000" stroke="none" 
	d="
M201.453918,120.903275 
	C200.990158,120.826904 200.986832,120.425781 200.980133,120.225609 
	C208.422775,120.121376 215.872101,120.217308 223.636261,120.575691 
	C216.606628,120.885300 209.262146,120.932472 201.453918,120.903275 
z"/>
<path fill="#3A3B59" opacity="1.000000" stroke="none" 
	d="
M147.304031,173.846725 
	C147.452667,173.310181 147.872955,172.699631 148.600342,172.064819 
	C148.463531,172.617950 148.019608,173.195343 147.304031,173.846725 
z"/>
<path fill="#000000" opacity="1.000000" stroke="none" 
	d="
M115.018402,66.840775 
	C113.899757,65.647598 112.781113,64.454430 111.064529,63.178841 
	C110.296692,63.391632 110.126801,63.686836 109.956917,63.982040 
	C109.956917,63.982044 110.002495,63.997047 109.637466,64.141258 
	C108.518913,66.428261 107.177193,68.554565 107.116570,70.716789 
	C106.888840,78.839752 107.078979,86.974419 107.112549,95.104706 
	C102.559959,95.251923 98.007362,95.399132 93.280334,94.760376 
	C93.051826,79.659233 92.997749,65.344055 92.943672,51.028881 
	C96.924995,51.027214 100.922073,50.820305 104.879967,51.124031 
	C106.482338,51.246998 107.999229,52.484005 109.555016,53.214069 
	C109.421875,53.618565 109.288727,54.023056 109.155586,54.427551 
	C111.373177,53.201221 113.507828,51.782581 115.823570,50.783825 
	C123.437805,47.499886 130.544571,51.918320 131.211426,60.449490 
	C131.673370,66.359276 131.831818,72.298027 131.956970,78.227402 
	C132.078110,83.967369 131.983215,89.711906 131.983215,96.651909 
	C125.888329,95.914574 121.001358,95.323364 116.046066,93.866180 
	C115.985306,88.170921 116.120384,83.337402 115.960274,78.513687 
	C115.830925,74.616585 115.345741,70.731300 115.018402,66.840775 
z"/>
<path fill="#000000" opacity="1.000000" stroke="none" 
	d="
M214.871429,53.721283 
	C219.775528,50.893810 224.282486,48.460087 230.023895,50.454540 
	C233.213135,51.562424 236.730087,51.339848 239.103348,54.560947 
	C243.528778,60.567314 245.648285,67.169434 244.618973,74.530663 
	C244.483963,75.496140 241.969879,76.733154 240.508606,76.801987 
	C234.873306,77.067406 229.218079,76.909698 221.685959,76.909698 
	C223.335693,79.549011 224.149918,82.295151 225.350143,82.475731 
	C227.966629,82.869400 230.779587,81.957008 233.512268,81.578316 
	C233.440552,81.124603 233.368820,80.670891 233.297104,80.217178 
	C236.287140,81.972878 239.313538,83.671196 242.240692,85.526123 
	C242.939316,85.968857 243.783310,86.962784 243.741745,87.653946 
	C243.585846,90.245598 236.246765,95.272751 233.509109,95.237617 
	C229.785370,95.189835 225.912323,94.953705 222.364471,95.841743 
	C217.250992,97.121674 215.381470,92.716278 212.752823,90.565544 
	C210.252472,88.519775 208.868973,84.439781 208.179688,81.015602 
	C207.276596,76.529297 206.486649,71.541138 207.578064,67.260979 
	C208.779984,62.547440 212.170471,58.391968 214.871429,53.721283 
M229.966690,64.316704 
	C228.474655,63.197781 226.982620,62.078857 225.490585,60.959930 
	C224.266357,62.862644 223.042145,64.765350 221.817917,66.668060 
	C222.224487,67.000687 222.631058,67.333305 223.037628,67.665924 
	C225.478439,67.097260 229.172974,70.595535 229.966690,64.316704 
z"/>
<path fill="#000000" opacity="1.000000" stroke="none" 
	d="
M56.954350,94.009529 
	C53.571255,93.993736 50.188164,93.977936 45.942314,93.962868 
	C44.721638,92.523697 44.074867,91.087952 44.054142,89.643219 
	C43.945114,82.043968 44.041267,74.441856 43.943462,66.842308 
	C43.926628,65.534401 43.318466,64.234100 42.983456,62.930286 
	C42.983456,62.930286 42.993279,62.995102 43.005180,62.600471 
	C42.030575,61.850838 41.044071,61.495834 40.057568,61.140827 
	C39.127377,57.610260 36.467400,53.873524 42.238636,51.568111 
	C43.377331,51.113243 43.891983,48.118198 44.013454,46.250336 
	C44.944427,31.934889 53.625656,29.291340 64.788895,29.327135 
	C65.418579,29.329153 66.377960,30.029970 66.620384,30.632336 
	C68.307686,34.824810 66.341019,40.119728 62.261478,42.821384 
	C60.320179,44.107002 58.386887,45.430103 59.708710,48.817993 
	C60.228436,49.918129 60.981464,50.912094 61.675758,50.872639 
	C65.344116,50.664162 66.200844,52.623772 65.962006,55.765347 
	C65.841354,57.352257 65.940933,58.955910 65.940933,59.580666 
	C63.415268,61.061127 61.706749,62.062603 59.611225,63.252647 
	C59.152760,72.264580 59.168518,81.090408 58.919422,89.908752 
	C58.880322,91.293076 57.639511,92.643456 56.954350,94.009529 
z"/>
<path fill="#000000" opacity="1.000000" stroke="none" 
	d="
M182.103119,62.093136 
	C180.956894,62.398590 179.810684,62.704041 178.008759,63.029495 
	C176.956848,63.385292 176.560638,63.721085 176.101501,64.516953 
	C176.087524,74.295731 176.136475,83.614441 176.121002,93.188828 
	C176.009888,93.613953 175.963196,93.783417 175.916489,93.952873 
	C171.770050,93.824677 167.623611,93.696487 163.229950,92.787949 
	C162.966522,83.010689 162.950317,74.013779 162.934113,65.016876 
	C162.488388,64.357658 162.042679,63.698448 161.106949,62.674118 
	C159.655457,62.123913 158.693970,61.938828 157.733673,61.747566 
	C158.755493,52.306374 158.755493,52.306374 161.709930,49.859032 
	C162.130188,49.276485 163.040344,48.492493 162.896210,48.142025 
	C161.116440,43.813904 163.396469,40.316570 164.658081,36.410767 
	C166.054230,32.088444 169.372726,30.795063 172.772614,30.231234 
	C176.882904,29.549593 181.192459,30.069679 185.707260,30.069679 
	C185.044067,33.554886 184.827087,37.047279 183.614502,40.150661 
	C182.930206,41.901997 180.607040,43.012989 178.693329,44.877781 
	C174.696442,49.360596 175.636063,50.667801 184.899918,53.213486 
	C183.965408,56.180489 183.034271,59.136814 182.103119,62.093136 
z"/>
<path fill="#4A4C66" opacity="1.000000" stroke="none" 
	d="
M107.352989,95.350418 
	C107.078979,86.974419 106.888840,78.839752 107.116570,70.716789 
	C107.177193,68.554565 108.518913,66.428261 109.621857,64.122948 
	C109.659248,73.175751 109.400032,82.393494 108.977081,91.603722 
	C108.915131,92.952858 108.074020,94.266212 107.352989,95.350418 
z"/>
<path fill="#4E526A" opacity="1.000000" stroke="none" 
	d="
M182.329315,62.374863 
	C183.034271,59.136814 183.965408,56.180489 184.899918,53.213486 
	C175.636063,50.667801 174.696442,49.360596 178.676407,45.216812 
	C178.001633,49.820656 181.870834,48.720718 184.924103,49.543358 
	C184.924103,53.329006 185.017120,57.229359 184.818756,61.114830 
	C184.790604,61.665829 183.345047,62.144459 182.329315,62.374863 
z"/>
<path fill="#4C4F66" opacity="1.000000" stroke="none" 
	d="
M59.998230,63.064079 
	C61.706749,62.062603 63.415268,61.061127 65.940933,59.580666 
	C65.940933,58.955910 65.841354,57.352257 65.962006,55.765347 
	C66.200844,52.623772 65.344116,50.664162 61.675758,50.872639 
	C60.981464,50.912094 60.228436,49.918129 59.718018,49.169556 
	C62.227024,49.396111 66.344894,49.520458 66.500175,50.369499 
	C67.195587,54.172039 67.130722,58.244545 66.470345,62.069412 
	C66.310944,62.992622 62.833790,63.343010 60.435684,63.756111 
	C59.989025,63.555401 59.998230,63.064075 59.998230,63.064079 
z"/>
<path fill="#FFFFFF" opacity="1.000000" stroke="none" 
	d="
M92.542374,51.204239 
	C92.997749,65.344055 93.051826,79.659233 93.015312,94.428795 
	C92.602859,94.246124 92.000137,93.608932 92.000435,92.972031 
	C92.006874,79.107864 92.080429,65.243736 92.542374,51.204239 
z"/>
<path fill="#8B888F" opacity="1.000000" stroke="none" 
	d="
M161.448959,49.614140 
	C158.755493,52.306374 158.755493,52.306374 157.733673,61.747566 
	C158.693970,61.938828 159.655457,62.123913 160.768448,62.638390 
	C159.447571,62.967785 157.975189,62.967785 156.156387,62.967785 
	C156.156387,58.614124 156.156387,54.411228 156.156387,49.596786 
	C157.745392,49.524925 159.466690,49.447086 161.448959,49.614140 
z"/>
<path fill="#51526B" opacity="1.000000" stroke="none" 
	d="
M176.169739,94.213158 
	C175.963196,93.783417 176.009888,93.613953 176.379852,92.876617 
	C176.802063,88.223160 177.055267,84.134041 176.961731,80.052864 
	C176.839462,74.717583 176.442963,69.388580 176.164429,64.056877 
	C176.560638,63.721085 176.956848,63.385292 177.649200,63.066788 
	C177.977356,72.479675 178.061615,81.875786 177.969788,91.270172 
	C177.959290,92.342865 176.962479,93.405914 176.169739,94.213158 
z"/>
<path fill="#E1D1D6" opacity="1.000000" stroke="none" 
	d="
M42.913513,63.399246 
	C43.318466,64.234100 43.926628,65.534401 43.943462,66.842308 
	C44.041267,74.441856 43.945114,82.043968 44.054142,89.643219 
	C44.074867,91.087952 44.721638,92.523697 45.514996,94.000366 
	C42.990955,95.042389 42.906982,95.042885 42.887447,91.746704 
	C42.832375,82.454109 42.852863,73.161072 42.913513,63.399246 
z"/>
<path fill="#7C7E91" opacity="1.000000" stroke="none" 
	d="
M59.611225,63.252644 
	C59.998230,63.064075 59.989025,63.555401 60.021896,63.799057 
	C60.030876,73.112114 60.054214,82.182121 59.939522,91.250381 
	C59.918903,92.880577 60.923054,95.734901 57.105194,94.395096 
	C57.639511,92.643456 58.880322,91.293076 58.919422,89.908752 
	C59.168518,81.090408 59.152760,72.264580 59.611225,63.252644 
z"/>
<path fill="#333335" opacity="1.000000" stroke="none" 
	d="
M162.648773,65.316139 
	C162.950317,74.013779 162.966522,83.010689 162.954865,92.467262 
	C162.617798,88.907623 162.113602,84.891464 162.048523,80.868217 
	C161.966339,75.786972 162.242065,70.699944 162.648773,65.316139 
z"/>
<path fill="#3C415A" opacity="1.000000" stroke="none" 
	d="
M115.002838,67.323509 
	C115.345741,70.731300 115.830925,74.616585 115.960274,78.513687 
	C116.120384,83.337402 115.985306,88.170921 115.946434,93.459999 
	C115.604385,89.700272 115.164734,85.485214 115.018158,81.260002 
	C114.862778,76.780449 114.985825,72.291237 115.002838,67.323509 
z"/>
<path fill="#474B64" opacity="1.000000" stroke="none" 
	d="
M39.888008,61.376110 
	C41.044071,61.495834 42.030575,61.850838 43.019917,62.571198 
	C41.911858,62.960392 40.800964,62.984226 39.690067,63.008060 
	C39.699528,62.542503 39.708988,62.076950 39.888008,61.376110 
z"/>
<path fill="#4A4C66" opacity="1.000000" stroke="none" 
	d="
M110.210220,63.928936 
	C110.126801,63.686836 110.296692,63.391632 110.730637,63.061958 
	C110.817627,63.310272 110.640579,63.593052 110.210220,63.928936 
z"/>
<path fill="#000004" opacity="1.000000" stroke="none" 
	d="
M272.066833,145.941864 
	C272.610199,143.647659 273.172577,141.750809 273.734955,139.853973 
	C274.325500,139.886627 274.916046,139.919296 275.506592,139.951950 
	C276.123779,143.628448 276.740936,147.304947 277.355499,150.965759 
	C276.004913,151.411224 274.824829,151.800461 273.471710,152.246765 
	C273.023987,150.338318 272.554901,148.338760 272.066833,145.941864 
z"/>
<path fill="#000000" opacity="1.000000" stroke="none" 
	d="
M148.021362,147.703766 
	C148.753067,144.911423 149.494934,142.507202 150.236786,140.102966 
	C150.813385,140.091187 151.389984,140.079391 151.966583,140.067612 
	C152.603073,142.284790 153.683624,144.491867 153.734436,146.722382 
	C153.774521,148.481689 152.547012,150.269867 151.882477,152.045227 
	C150.598816,150.727448 149.315155,149.409653 148.021362,147.703766 
z"/>
<path fill="#53546F" opacity="1.000000" stroke="none" 
	d="
M182.280670,139.591949 
	C182.472534,139.931747 182.433197,140.321671 182.393860,140.711609 
	C182.123093,140.615189 181.852356,140.518784 181.581604,140.422363 
	C181.737564,140.162277 181.893509,139.902191 182.280670,139.591949 
z"/>
<path fill="#010101" opacity="1.000000" stroke="none" 
	d="
M226.236481,151.985474 
	C225.017136,151.782043 223.332611,151.441208 223.214188,150.807678 
	C222.661072,147.848236 222.457367,144.811005 222.348267,141.793655 
	C222.330673,141.307556 223.736588,140.243607 223.947342,140.366669 
	C224.865753,140.902954 226.186401,141.717789 226.270447,142.542587 
	C226.579498,145.575531 226.454453,148.652710 226.236481,151.985474 
z"/>
<path fill="#2D3552" opacity="1.000000" stroke="none" 
	d="
M230.027313,64.696999 
	C229.172974,70.595535 225.478439,67.097260 223.037628,67.665924 
	C222.631058,67.333305 222.224487,67.000687 221.817917,66.668060 
	C223.042145,64.765350 224.266357,62.862644 225.490585,60.959934 
	C226.982620,62.078857 228.474655,63.197781 230.027313,64.696999 
z"/>
<path fill="#404080" opacity="1.000000" stroke="none" 
	d="
M176.101501,64.516953 
	C176.442963,69.388580 176.839462,74.717583 176.961731,80.052864 
	C177.055267,84.134041 176.802063,88.223160 176.444260,92.620949 
	C176.136475,83.614441 176.087524,74.295731 176.101501,64.516953 
z"/>
</svg>